<svg width="131" height="303" viewBox="0 0 131 303" fill="none" xmlns="http://www.w3.org/2000/svg">
<path fill-rule="evenodd" clip-rule="evenodd" d="M127.272 141.41C125.214 141.41 123.545 139.698 123.545 137.588C123.545 135.477 125.214 133.766 127.272 133.766C129.331 133.766 131 135.477 131 137.588C131 139.698 129.331 141.41 127.272 141.41ZM127.272 114.656C125.214 114.656 123.545 112.945 123.545 110.835C123.545 108.724 125.214 107.013 127.272 107.013C129.331 107.013 131 108.724 131 110.835C131 112.945 129.331 114.656 127.272 114.656ZM127.272 87.9032C125.214 87.9032 123.545 86.1921 123.545 84.0813C123.545 81.9706 125.214 80.2595 127.272 80.2595C129.331 80.2595 131 81.9706 131 84.0813C131 86.1921 129.331 87.9032 127.272 87.9032ZM127.272 61.1501C125.214 61.1501 123.545 59.439 123.545 57.3282C123.545 55.2174 125.214 53.5063 127.272 53.5063C129.331 53.5063 131 55.2174 131 57.3282C131 59.439 129.331 61.1501 127.272 61.1501ZM127.272 34.3969C125.214 34.3969 123.545 32.6858 123.545 30.5751C123.545 28.4643 125.214 26.7531 127.272 26.7531C129.331 26.7531 131 28.4643 131 30.5751C131 32.6858 129.331 34.3969 127.272 34.3969ZM127.272 7.64375C125.214 7.64375 123.545 5.93264 123.545 3.82188C123.545 1.71111 125.214 0 127.272 0C129.331 0 131 1.71111 131 3.82188C131 5.93264 129.331 7.64375 127.272 7.64375ZM102.776 141.41C100.718 141.41 99.0488 139.698 99.0488 137.588C99.0488 135.477 100.718 133.766 102.776 133.766C104.835 133.766 106.504 135.477 106.504 137.588C106.504 139.698 104.835 141.41 102.776 141.41ZM102.776 114.656C100.718 114.656 99.0488 112.945 99.0488 110.835C99.0488 108.724 100.718 107.013 102.776 107.013C104.835 107.013 106.504 108.724 106.504 110.835C106.504 112.945 104.835 114.656 102.776 114.656ZM102.776 87.9032C100.718 87.9032 99.0488 86.1921 99.0488 84.0813C99.0488 81.9706 100.718 80.2595 102.776 80.2595C104.835 80.2595 106.504 81.9706 106.504 84.0813C106.504 86.1921 104.835 87.9032 102.776 87.9032ZM102.776 61.1501C100.718 61.1501 99.0488 59.439 99.0488 57.3282C99.0488 55.2174 100.718 53.5063 102.776 53.5063C104.835 53.5063 106.504 55.2174 106.504 57.3282C106.504 59.439 104.835 61.1501 102.776 61.1501ZM102.776 34.3969C100.718 34.3969 99.0488 32.6858 99.0488 30.5751C99.0488 28.4643 100.718 26.7531 102.776 26.7531C104.835 26.7531 106.504 28.4643 106.504 30.5751C106.504 32.6858 104.835 34.3969 102.776 34.3969ZM102.776 7.64375C100.718 7.64375 99.0488 5.93264 99.0488 3.82188C99.0488 1.71111 100.718 0 102.776 0C104.835 0 106.504 1.71111 106.504 3.82188C106.504 5.93264 104.835 7.64375 102.776 7.64375ZM78.2805 141.41C76.2218 141.41 74.5528 139.698 74.5528 137.588C74.5528 135.477 76.2218 133.766 78.2805 133.766C80.3392 133.766 82.0081 135.477 82.0081 137.588C82.0081 139.698 80.3392 141.41 78.2805 141.41ZM78.2805 114.656C76.2218 114.656 74.5528 112.945 74.5528 110.835C74.5528 108.724 76.2218 107.013 78.2805 107.013C80.3392 107.013 82.0081 108.724 82.0081 110.835C82.0081 112.945 80.3392 114.656 78.2805 114.656ZM78.2805 87.9032C76.2218 87.9032 74.5528 86.1921 74.5528 84.0813C74.5528 81.9706 76.2218 80.2595 78.2805 80.2595C80.3392 80.2595 82.0081 81.9706 82.0081 84.0813C82.0081 86.1921 80.3392 87.9032 78.2805 87.9032ZM78.2805 61.1501C76.2218 61.1501 74.5528 59.439 74.5528 57.3282C74.5528 55.2174 76.2218 53.5063 78.2805 53.5063C80.3392 53.5063 82.0081 55.2174 82.0081 57.3282C82.0081 59.439 80.3392 61.1501 78.2805 61.1501ZM78.2805 34.3969C76.2218 34.3969 74.5528 32.6858 74.5528 30.5751C74.5528 28.4643 76.2218 26.7531 78.2805 26.7531C80.3392 26.7531 82.0081 28.4643 82.0081 30.5751C82.0081 32.6858 80.3392 34.3969 78.2805 34.3969ZM78.2805 7.64375C76.2218 7.64375 74.5528 5.93264 74.5528 3.82188C74.5528 1.71111 76.2218 0 78.2805 0C80.3392 0 82.0081 1.71111 82.0081 3.82188C82.0081 5.93264 80.3392 7.64375 78.2805 7.64375ZM52.7195 141.41C50.6608 141.41 48.9919 139.698 48.9919 137.588C48.9919 135.477 50.6608 133.766 52.7195 133.766C54.7782 133.766 56.4472 135.477 56.4472 137.588C56.4472 139.698 54.7782 141.41 52.7195 141.41ZM52.7195 114.656C50.6608 114.656 48.9919 112.945 48.9919 110.835C48.9919 108.724 50.6608 107.013 52.7195 107.013C54.7782 107.013 56.4472 108.724 56.4472 110.835C56.4472 112.945 54.7782 114.656 52.7195 114.656ZM52.7195 87.9032C50.6608 87.9032 48.9919 86.1921 48.9919 84.0813C48.9919 81.9706 50.6608 80.2595 52.7195 80.2595C54.7782 80.2595 56.4472 81.9706 56.4472 84.0813C56.4472 86.1921 54.7782 87.9032 52.7195 87.9032ZM52.7195 61.1501C50.6608 61.1501 48.9919 59.439 48.9919 57.3282C48.9919 55.2174 50.6608 53.5063 52.7195 53.5063C54.7782 53.5063 56.4472 55.2174 56.4472 57.3282C56.4472 59.439 54.7782 61.1501 52.7195 61.1501ZM52.7195 34.3969C50.6608 34.3969 48.9919 32.6858 48.9919 30.5751C48.9919 28.4643 50.6608 26.7531 52.7195 26.7531C54.7782 26.7531 56.4472 28.4643 56.4472 30.5751C56.4472 32.6858 54.7782 34.3969 52.7195 34.3969ZM52.7195 7.64375C50.6608 7.64375 48.9919 5.93264 48.9919 3.82188C48.9919 1.71111 50.6608 0 52.7195 0C54.7782 0 56.4472 1.71111 56.4472 3.82188C56.4472 5.93264 54.7782 7.64375 52.7195 7.64375ZM28.2236 141.41C26.1649 141.41 24.4959 139.698 24.4959 137.588C24.4959 135.477 26.1649 133.766 28.2236 133.766C30.2823 133.766 31.9512 135.477 31.9512 137.588C31.9512 139.698 30.2823 141.41 28.2236 141.41ZM28.2236 114.656C26.1649 114.656 24.4959 112.945 24.4959 110.835C24.4959 108.724 26.1649 107.013 28.2236 107.013C30.2823 107.013 31.9512 108.724 31.9512 110.835C31.9512 112.945 30.2823 114.656 28.2236 114.656ZM28.2236 87.9032C26.1649 87.9032 24.4959 86.1921 24.4959 84.0813C24.4959 81.9706 26.1649 80.2595 28.2236 80.2595C30.2823 80.2595 31.9512 81.9706 31.9512 84.0813C31.9512 86.1921 30.2823 87.9032 28.2236 87.9032ZM28.2236 61.1501C26.1649 61.1501 24.4959 59.439 24.4959 57.3282C24.4959 55.2174 26.1649 53.5063 28.2236 53.5063C30.2823 53.5063 31.9512 55.2174 31.9512 57.3282C31.9512 59.439 30.2823 61.1501 28.2236 61.1501ZM28.2236 34.3969C26.1649 34.3969 24.4959 32.6858 24.4959 30.5751C24.4959 28.4643 26.1649 26.7531 28.2236 26.7531C30.2823 26.7531 31.9512 28.4643 31.9512 30.5751C31.9512 32.6858 30.2823 34.3969 28.2236 34.3969ZM28.2236 7.64375C26.1649 7.64375 24.4959 5.93264 24.4959 3.82188C24.4959 1.71111 26.1649 0 28.2236 0C30.2823 0 31.9512 1.71111 31.9512 3.82188C31.9512 5.93264 30.2823 7.64375 28.2236 7.64375ZM3.72767 141.41C1.66896 141.41 0 139.698 0 137.588C0 135.477 1.66896 133.766 3.72767 133.766C5.7864 133.766 7.45524 135.477 7.45524 137.588C7.45524 139.698 5.7864 141.41 3.72767 141.41ZM3.72767 114.656C1.66896 114.656 0 112.945 0 110.835C0 108.724 1.66896 107.013 3.72767 107.013C5.7864 107.013 7.45524 108.724 7.45524 110.835C7.45524 112.945 5.7864 114.656 3.72767 114.656ZM3.72767 87.9032C1.66896 87.9032 0 86.1921 0 84.0813C0 81.9706 1.66896 80.2595 3.72767 80.2595C5.7864 80.2595 7.45524 81.9706 7.45524 84.0813C7.45524 86.1921 5.7864 87.9032 3.72767 87.9032ZM3.72767 61.1501C1.66896 61.1501 0 59.439 0 57.3282C0 55.2174 1.66896 53.5063 3.72767 53.5063C5.7864 53.5063 7.45524 55.2174 7.45524 57.3282C7.45524 59.439 5.7864 61.1501 3.72767 61.1501ZM3.72767 34.3969C1.66896 34.3969 0 32.6858 0 30.5751C0 28.4643 1.66896 26.7531 3.72767 26.7531C5.7864 26.7531 7.45524 28.4643 7.45524 30.5751C7.45524 32.6858 5.7864 34.3969 3.72767 34.3969ZM3.72767 7.64375C1.66896 7.64375 0 5.93264 0 3.82188C0 1.71111 1.66896 0 3.72767 0C5.7864 0 7.45524 1.71111 7.45524 3.82188C7.45524 5.93264 5.7864 7.64375 3.72767 7.64375ZM127.272 302.459C125.214 302.459 123.545 300.748 123.545 298.637C123.545 296.527 125.214 294.816 127.272 294.816C129.331 294.816 131 296.527 131 298.637C131 300.748 129.331 302.459 127.272 302.459ZM127.272 275.706C125.214 275.706 123.545 273.995 123.545 271.884C123.545 269.773 125.214 268.062 127.272 268.062C129.331 268.062 131 269.773 131 271.884C131 273.995 129.331 275.706 127.272 275.706ZM127.272 248.953C125.214 248.953 123.545 247.242 123.545 245.131C123.545 243.02 125.214 241.309 127.272 241.309C129.331 241.309 131 243.02 131 245.131C131 247.242 129.331 248.953 127.272 248.953ZM127.272 222.2C125.214 222.2 123.545 220.489 123.545 218.378C123.545 216.267 125.214 214.556 127.272 214.556C129.331 214.556 131 216.267 131 218.378C131 220.489 129.331 222.2 127.272 222.2ZM127.272 195.447C125.214 195.447 123.545 193.736 123.545 191.625C123.545 189.514 125.214 187.803 127.272 187.803C129.331 187.803 131 189.514 131 191.625C131 193.736 129.331 195.447 127.272 195.447ZM127.272 168.694C125.214 168.694 123.545 166.982 123.545 164.872C123.545 162.761 125.214 161.05 127.272 161.05C129.331 161.05 131 162.761 131 164.872C131 166.982 129.331 168.694 127.272 168.694ZM102.776 302.459C100.718 302.459 99.0488 300.748 99.0488 298.637C99.0488 296.527 100.718 294.816 102.776 294.816C104.835 294.816 106.504 296.527 106.504 298.637C106.504 300.748 104.835 302.459 102.776 302.459ZM102.776 275.706C100.718 275.706 99.0488 273.995 99.0488 271.884C99.0488 269.773 100.718 268.062 102.776 268.062C104.835 268.062 106.504 269.773 106.504 271.884C106.504 273.995 104.835 275.706 102.776 275.706ZM102.776 248.953C100.718 248.953 99.0488 247.242 99.0488 245.131C99.0488 243.02 100.718 241.309 102.776 241.309C104.835 241.309 106.504 243.02 106.504 245.131C106.504 247.242 104.835 248.953 102.776 248.953ZM102.776 222.2C100.718 222.2 99.0488 220.489 99.0488 218.378C99.0488 216.267 100.718 214.556 102.776 214.556C104.835 214.556 106.504 216.267 106.504 218.378C106.504 220.489 104.835 222.2 102.776 222.2ZM102.776 195.447C100.718 195.447 99.0488 193.736 99.0488 191.625C99.0488 189.514 100.718 187.803 102.776 187.803C104.835 187.803 106.504 189.514 106.504 191.625C106.504 193.736 104.835 195.447 102.776 195.447ZM102.776 168.694C100.718 168.694 99.0488 166.982 99.0488 164.872C99.0488 162.761 100.718 161.05 102.776 161.05C104.835 161.05 106.504 162.761 106.504 164.872C106.504 166.982 104.835 168.694 102.776 168.694ZM78.2805 302.459C76.2218 302.459 74.5528 300.748 74.5528 298.637C74.5528 296.527 76.2218 294.816 78.2805 294.816C80.3392 294.816 82.0081 296.527 82.0081 298.637C82.0081 300.748 80.3392 302.459 78.2805 302.459ZM78.2805 275.706C76.2218 275.706 74.5528 273.995 74.5528 271.884C74.5528 269.773 76.2218 268.062 78.2805 268.062C80.3392 268.062 82.0081 269.773 82.0081 271.884C82.0081 273.995 80.3392 275.706 78.2805 275.706ZM78.2805 248.953C76.2218 248.953 74.5528 247.242 74.5528 245.131C74.5528 243.02 76.2218 241.309 78.2805 241.309C80.3392 241.309 82.0081 243.02 82.0081 245.131C82.0081 247.242 80.3392 248.953 78.2805 248.953ZM78.2805 222.2C76.2218 222.2 74.5528 220.489 74.5528 218.378C74.5528 216.267 76.2218 214.556 78.2805 214.556C80.3392 214.556 82.0081 216.267 82.0081 218.378C82.0081 220.489 80.3392 222.2 78.2805 222.2ZM78.2805 195.447C76.2218 195.447 74.5528 193.736 74.5528 191.625C74.5528 189.514 76.2218 187.803 78.2805 187.803C80.3392 187.803 82.0081 189.514 82.0081 191.625C82.0081 193.736 80.3392 195.447 78.2805 195.447ZM78.2805 168.694C76.2218 168.694 74.5528 166.982 74.5528 164.872C74.5528 162.761 76.2218 161.05 78.2805 161.05C80.3392 161.05 82.0081 162.761 82.0081 164.872C82.0081 166.982 80.3392 168.694 78.2805 168.694ZM52.7195 302.459C50.6608 302.459 48.9919 300.748 48.9919 298.637C48.9919 296.527 50.6608 294.816 52.7195 294.816C54.7782 294.816 56.4472 296.527 56.4472 298.637C56.4472 300.748 54.7782 302.459 52.7195 302.459ZM52.7195 275.706C50.6608 275.706 48.9919 273.995 48.9919 271.884C48.9919 269.773 50.6608 268.062 52.7195 268.062C54.7782 268.062 56.4472 269.773 56.4472 271.884C56.4472 273.995 54.7782 275.706 52.7195 275.706ZM52.7195 248.953C50.6608 248.953 48.9919 247.242 48.9919 245.131C48.9919 243.02 50.6608 241.309 52.7195 241.309C54.7782 241.309 56.4472 243.02 56.4472 245.131C56.4472 247.242 54.7782 248.953 52.7195 248.953ZM52.7195 222.2C50.6608 222.2 48.9919 220.489 48.9919 218.378C48.9919 216.267 50.6608 214.556 52.7195 214.556C54.7782 214.556 56.4472 216.267 56.4472 218.378C56.4472 220.489 54.7782 222.2 52.7195 222.2ZM52.7195 195.447C50.6608 195.447 48.9919 193.736 48.9919 191.625C48.9919 189.514 50.6608 187.803 52.7195 187.803C54.7782 187.803 56.4472 189.514 56.4472 191.625C56.4472 193.736 54.7782 195.447 52.7195 195.447ZM52.7195 168.694C50.6608 168.694 48.9919 166.982 48.9919 164.872C48.9919 162.761 50.6608 161.05 52.7195 161.05C54.7782 161.05 56.4472 162.761 56.4472 164.872C56.4472 166.982 54.7782 168.694 52.7195 168.694ZM28.2236 302.459C26.1649 302.459 24.4959 300.748 24.4959 298.637C24.4959 296.527 26.1649 294.816 28.2236 294.816C30.2823 294.816 31.9512 296.527 31.9512 298.637C31.9512 300.748 30.2823 302.459 28.2236 302.459ZM28.2236 275.706C26.1649 275.706 24.4959 273.995 24.4959 271.884C24.4959 269.773 26.1649 268.062 28.2236 268.062C30.2823 268.062 31.9512 269.773 31.9512 271.884C31.9512 273.995 30.2823 275.706 28.2236 275.706ZM28.2236 248.953C26.1649 248.953 24.4959 247.242 24.4959 245.131C24.4959 243.02 26.1649 241.309 28.2236 241.309C30.2823 241.309 31.9512 243.02 31.9512 245.131C31.9512 247.242 30.2823 248.953 28.2236 248.953ZM28.2236 222.2C26.1649 222.2 24.4959 220.489 24.4959 218.378C24.4959 216.267 26.1649 214.556 28.2236 214.556C30.2823 214.556 31.9512 216.267 31.9512 218.378C31.9512 220.489 30.2823 222.2 28.2236 222.2ZM28.2236 195.447C26.1649 195.447 24.4959 193.736 24.4959 191.625C24.4959 189.514 26.1649 187.803 28.2236 187.803C30.2823 187.803 31.9512 189.514 31.9512 191.625C31.9512 193.736 30.2823 195.447 28.2236 195.447ZM28.2236 168.694C26.1649 168.694 24.4959 166.982 24.4959 164.872C24.4959 162.761 26.1649 161.05 28.2236 161.05C30.2823 161.05 31.9512 162.761 31.9512 164.872C31.9512 166.982 30.2823 168.694 28.2236 168.694ZM3.72767 302.459C1.66896 302.459 0 300.748 0 298.637C0 296.527 1.66896 294.816 3.72767 294.816C5.7864 294.816 7.45524 296.527 7.45524 298.637C7.45524 300.748 5.7864 302.459 3.72767 302.459ZM3.72767 275.706C1.66896 275.706 0 273.995 0 271.884C0 269.773 1.66896 268.062 3.72767 268.062C5.7864 268.062 7.45524 269.773 7.45524 271.884C7.45524 273.995 5.7864 275.706 3.72767 275.706ZM3.72767 248.953C1.66896 248.953 0 247.242 0 245.131C0 243.02 1.66896 241.309 3.72767 241.309C5.7864 241.309 7.45524 243.02 7.45524 245.131C7.45524 247.242 5.7864 248.953 3.72767 248.953ZM3.72767 222.2C1.66896 222.2 0 220.489 0 218.378C0 216.267 1.66896 214.556 3.72767 214.556C5.7864 214.556 7.45524 216.267 7.45524 218.378C7.45524 220.489 5.7864 222.2 3.72767 222.2ZM3.72767 195.447C1.66896 195.447 0 193.736 0 191.625C0 189.514 1.66896 187.803 3.72767 187.803C5.7864 187.803 7.45524 189.514 7.45524 191.625C7.45524 193.736 5.7864 195.447 3.72767 195.447ZM3.72767 168.694C1.66896 168.694 0 166.982 0 164.872C0 162.761 1.66896 161.05 3.72767 161.05C5.7864 161.05 7.45524 162.761 7.45524 164.872C7.45524 166.982 5.7864 168.694 3.72767 168.694Z" fill="black"/>
</svg>
